# Blender v2.82 (sub 7) OBJ File: ''
# www.blender.org
mtllib parachute.mtl
o Cylinder
v 0.000000 2.500000 -2.000000
v 0.000000 2.500000 2.000000
v 1.170542 2.451963 -2.000000
v 1.170542 2.451963 2.000000
v 2.296101 2.309699 -2.000000
v 2.296101 2.309699 2.000000
v 3.333421 2.078674 -2.000000
v 3.333421 2.078674 2.000000
v 4.242640 1.767767 -2.000000
v 4.242640 1.767767 2.000000
v 4.988818 1.388926 -2.000000
v 4.988818 1.388925 2.000000
v 5.543277 0.956709 -2.000000
v 5.543277 0.956708 2.000000
v 5.884711 0.487726 -2.000000
v 5.884711 0.487726 2.000000
v 6.000000 0.000000 -2.000000
v 6.000000 0.000000 2.000000
v -6.000000 0.000003 -2.000000
v -6.000000 0.000002 2.000000
v -5.884710 0.487728 -2.000000
v -5.884710 0.487728 2.000000
v -5.543274 0.956711 -2.000000
v -5.543274 0.956711 2.000000
v -4.988813 1.388928 -2.000000
v -4.988813 1.388928 2.000000
v -4.242635 1.767769 -2.000000
v -4.242635 1.767769 2.000000
v -3.333415 2.078676 -2.000000
v -3.333415 2.078676 2.000000
v -2.296093 2.309700 -2.000000
v -2.296093 2.309700 2.000000
v -1.170533 2.451964 -2.000000
v -1.170533 2.451964 2.000000
v 0.000000 2.500000 2.000000
v 1.170542 2.451963 2.000000
v 2.296101 2.309699 2.000000
v 3.333421 2.078674 2.000000
v 4.242640 1.767767 2.000000
v 4.988818 1.388925 2.000000
v 5.543277 0.956708 2.000000
v 5.884711 0.487726 2.000000
v 6.000000 0.000000 2.000000
v -6.000000 0.000002 2.000000
v -5.884710 0.487728 2.000000
v -5.543274 0.956711 2.000000
v -4.988813 1.388928 2.000000
v -4.242635 1.767769 2.000000
v -3.333415 2.078676 2.000000
v -2.296093 2.309700 2.000000
v -1.170533 2.451964 2.000000
v 0.000000 2.319299 2.608163
v 1.085935 2.274734 2.608163
v 2.130138 2.142753 2.608163
v 3.092481 1.928427 2.608163
v 3.935981 1.639992 2.608163
v 4.628224 1.288533 2.608163
v 5.142607 0.887557 2.608163
v 5.459363 0.452473 2.608163
v 5.566318 0.000000 2.608163
v -5.566318 0.000002 2.608163
v -5.459362 0.452475 2.608163
v -5.142605 0.887560 2.608163
v -4.628221 1.288536 2.608163
v -3.935976 1.639994 2.608163
v -3.092474 1.928428 2.608163
v -2.130130 2.142754 2.608163
v -1.085927 2.274735 2.608163
v 0.000000 2.192070 2.037446
v 0.947496 2.161332 2.037446
v 1.897884 2.060154 2.037446
v 2.811113 1.879001 2.037446
v 3.634250 1.620459 2.037446
v 4.323256 1.294902 2.037446
v 4.845172 0.916339 2.037446
v 5.176839 0.500741 2.037446
v 5.304163 0.065238 2.037446
v -5.304163 0.065240 2.037446
v -5.176838 0.500743 2.037446
v -4.845170 0.916341 2.037446
v -4.323253 1.294905 2.037446
v -3.634245 1.620461 2.037446
v -2.811106 1.879002 2.037446
v -1.897877 2.060156 2.037446
v -0.947488 2.161333 2.037446
v 0.000000 2.192069 -2.086427
v 0.947496 2.161332 -2.086427
v 1.897884 2.060154 -2.086427
v 2.811113 1.879001 -2.086427
v 3.634250 1.620459 -2.086427
v 4.323256 1.294903 -2.086427
v 4.845172 0.916339 -2.086427
v 5.176839 0.500741 -2.086427
v 5.304163 0.065238 -2.086427
v -5.304163 0.065240 -2.086427
v -5.176838 0.500743 -2.086427
v -4.845170 0.916342 -2.086427
v -4.323253 1.294905 -2.086427
v -3.634245 1.620461 -2.086427
v -2.811106 1.879002 -2.086427
v -1.897877 2.060155 -2.086427
v -0.947488 2.161333 -2.086427
v 0.000000 2.319334 -2.546614
v 1.083029 2.275381 -2.546614
v 2.127145 2.144245 -2.546614
v 3.090717 1.930222 -2.546614
v 3.935398 1.641708 -2.546614
v 4.628468 1.290023 -2.546614
v 5.143363 0.888787 -2.546614
v 5.460407 0.453454 -2.546614
v 5.567494 0.000758 -2.546614
v -5.567494 0.000760 -2.546614
v -5.460407 0.453456 -2.546614
v -5.143362 0.888789 -2.546614
v -4.628464 1.290025 -2.546614
v -3.935393 1.641710 -2.546614
v -3.090711 1.930224 -2.546614
v -2.127137 2.144247 -2.546614
v -1.083020 2.275382 -2.546614
vt 0.835532 0.288527
vt 0.473289 0.288123
vt 0.473373 0.252115
vt 0.835486 0.253538
vt 0.473530 0.216109
vt 0.835651 0.218469
vt 0.473761 0.180101
vt 0.835990 0.183330
vt 0.474065 0.144085
vt 0.836503 0.148123
vt 0.474438 0.108058
vt 0.837221 0.112827
vt 0.474876 0.072016
vt 0.838209 0.077383
vt 0.475371 0.035952
vt 0.839563 0.041671
vt 0.475895 0.000124
vt 0.841420 0.005467
vt 0.841426 0.571591
vt 0.475208 0.576725
vt 0.474731 0.540578
vt 0.839607 0.535418
vt 0.474313 0.504453
vt 0.838261 0.499720
vt 0.473960 0.468351
vt 0.837271 0.464275
vt 0.473678 0.432271
vt 0.836547 0.428969
vt 0.473470 0.396211
vt 0.836027 0.393750
vt 0.473336 0.360169
vt 0.835679 0.358600
vt 0.473277 0.324141
vt 0.835501 0.323522
vt 0.988815 0.508175
vt 0.999876 0.539440
vt 0.946590 0.559661
vt 0.934667 0.525961
vt 0.979183 0.476442
vt 0.924285 0.491756
vt 0.970999 0.444305
vt 0.915463 0.457115
vt 0.964280 0.411830
vt 0.908221 0.422109
vt 0.959040 0.379083
vt 0.902572 0.386812
vt 0.955289 0.346133
vt 0.898529 0.351294
vt 0.953035 0.313047
vt 0.896100 0.315630
vt 0.952283 0.279893
vt 0.895289 0.279893
vt 0.896100 0.244155
vt 0.953035 0.246738
vt 0.955289 0.213652
vt 0.898529 0.208491
vt 0.959039 0.180702
vt 0.902572 0.172974
vt 0.964280 0.147956
vt 0.908220 0.137676
vt 0.970999 0.115481
vt 0.915463 0.102671
vt 0.979183 0.083343
vt 0.924285 0.068030
vt 0.988815 0.051610
vt 0.934667 0.033824
vt 0.999876 0.020346
vt 0.946590 0.000124
vt 0.429735 0.487711
vt 0.428771 0.519405
vt 0.054163 0.519685
vt 0.053305 0.487650
vt 0.002487 0.527562
vt 0.001101 0.494520
vt 0.000523 0.461957
vt 0.052690 0.455662
vt 0.000314 0.429670
vt 0.052345 0.423694
vt 0.000249 0.397601
vt 0.052129 0.391876
vt 0.000216 0.365696
vt 0.052007 0.360405
vt 0.000169 0.333920
vt 0.051929 0.329538
vt 0.000124 0.302249
vt 0.051862 0.299627
vt 0.000154 0.270686
vt 0.051768 0.270689
vt 0.000125 0.239123
vt 0.051868 0.241750
vt 0.000172 0.207449
vt 0.051932 0.211838
vt 0.000224 0.175667
vt 0.052017 0.180972
vt 0.000268 0.143756
vt 0.052150 0.149502
vt 0.000348 0.111679
vt 0.052378 0.117687
vt 0.000577 0.079384
vt 0.052754 0.085705
vt 0.001172 0.046817
vt 0.053381 0.053714
vt 0.002575 0.013774
vt 0.054252 0.021676
vt 0.430647 0.423723
vt 0.430321 0.455719
vt 0.430812 0.391905
vt 0.431002 0.329559
vt 0.430925 0.360424
vt 0.428861 0.022093
vt 0.429812 0.053784
vt 0.430384 0.085772
vt 0.430678 0.117758
vt 0.430829 0.149577
vt 0.430931 0.181060
vt 0.431002 0.211927
vt 0.431158 0.270741
vt 0.431058 0.241825
vt 0.431053 0.299659
vt 0.892517 0.532083
vt 0.895041 0.566632
vt 0.890882 0.497435
vt 0.889785 0.462659
vt 0.889013 0.427779
vt 0.888435 0.392839
vt 0.887978 0.357910
vt 0.887607 0.323094
vt 0.887318 0.288515
vt 0.887584 0.253942
vt 0.887935 0.219140
vt 0.888379 0.184229
vt 0.888951 0.149309
vt 0.889726 0.114445
vt 0.890833 0.079680
vt 0.892488 0.045033
vt 0.895041 0.010476
vt 0.471984 0.494207
vt 0.470407 0.527159
vt 0.472571 0.461693
vt 0.472766 0.429459
vt 0.472827 0.397432
vt 0.472881 0.365552
vt 0.472961 0.333790
vt 0.473029 0.302168
vt 0.473003 0.270743
vt 0.473029 0.239317
vt 0.472961 0.207699
vt 0.472886 0.175943
vt 0.472843 0.144069
vt 0.472799 0.112050
vt 0.472627 0.079823
vt 0.472060 0.047311
vt 0.470499 0.014359
vt 0.057352 0.541237
vt 0.421256 0.541095
vt 0.057451 0.000124
vt 0.421356 0.000400
vn 0.0410 0.9992 0.0000
vn 0.1254 0.9921 0.0000
vn 0.2174 0.9761 0.0000
vn 0.3236 0.9462 0.0000
vn 0.4527 0.8917 0.0000
vn 0.6148 0.7887 0.0000
vn 0.8084 0.5886 0.0000
vn 0.9732 0.2300 0.0000
vn -0.9732 0.2300 0.0000
vn -0.8084 0.5886 0.0000
vn -0.6148 0.7887 0.0000
vn -0.4527 0.8917 0.0000
vn -0.3236 0.9462 0.0000
vn -0.2174 0.9761 0.0000
vn -0.1254 0.9921 0.0000
vn -0.0410 0.9992 0.0000
vn 0.7995 0.1890 0.5701
vn 0.6934 0.5048 0.5142
vn 0.5511 0.7069 0.4434
vn 0.4180 0.8234 0.3838
vn 0.3042 0.8897 0.3403
vn 0.2066 0.9277 0.3110
vn 0.1199 0.9485 0.2931
vn 0.0393 0.9578 0.2846
vn -0.0393 0.9578 0.2846
vn -0.1199 0.9485 0.2931
vn -0.2066 0.9277 0.3110
vn -0.3042 0.8897 0.3403
vn -0.4180 0.8234 0.3838
vn -0.5511 0.7069 0.4434
vn -0.6934 0.5048 0.5142
vn -0.7995 0.1890 0.5701
vn -0.9598 -0.2806 0.0000
vn -0.8863 -0.2338 0.3997
vn -0.7475 -0.5698 0.3414
vn -0.5769 -0.7670 0.2809
vn -0.4275 -0.8723 0.2373
vn -0.3048 -0.9286 0.2118
vn -0.2021 -0.9584 0.2018
vn -0.1137 -0.9724 0.2039
vn -0.0362 -0.9770 0.2103
vn 0.0362 -0.9770 0.2103
vn 0.1137 -0.9724 0.2039
vn 0.2021 -0.9584 0.2018
vn 0.3048 -0.9286 0.2118
vn 0.4275 -0.8723 0.2373
vn 0.5769 -0.7670 0.2809
vn 0.7475 -0.5698 0.3414
vn 0.8863 -0.2338 0.3997
vn -0.6812 -0.7321 0.0000
vn -0.2455 -0.9694 0.0000
vn -0.4272 -0.9042 -0.0000
vn 0.8802 -0.4747 0.0000
vn 0.5027 -0.8645 0.0000
vn 0.2997 -0.9540 0.0000
vn 0.1946 -0.9809 0.0000
vn 0.0324 -0.9995 0.0000
vn -0.0324 -0.9995 0.0000
vn -0.1059 -0.9944 0.0000
vn 0.1059 -0.9944 0.0000
vn -0.7712 0.1824 -0.6100
vn -0.6733 0.4903 -0.5534
vn -0.5391 0.6917 -0.4805
vn -0.4112 0.8101 -0.4178
vn -0.3002 0.8785 -0.3716
vn -0.2042 0.9178 -0.3404
vn -0.1184 0.9394 -0.3217
vn -0.0387 0.9489 -0.3132
vn 0.0387 0.9489 -0.3132
vn 0.1184 0.9394 -0.3217
vn 0.2042 0.9178 -0.3404
vn 0.3002 0.8785 -0.3716
vn 0.4112 0.8101 -0.4178
vn 0.5391 0.6917 -0.4805
vn 0.6733 0.4903 -0.5535
vn 0.7712 0.1824 -0.6100
vn -0.8495 -0.2242 -0.4776
vn -0.7243 -0.5522 -0.4129
vn -0.5645 -0.7505 -0.3436
vn -0.4208 -0.8587 -0.2925
vn -0.3008 -0.9170 -0.2620
vn -0.1995 -0.9476 -0.2496
vn -0.1120 -0.9614 -0.2514
vn -0.0355 -0.9654 -0.2583
vn 0.0355 -0.9654 -0.2583
vn 0.1120 -0.9614 -0.2514
vn 0.1995 -0.9476 -0.2496
vn 0.3008 -0.9170 -0.2620
vn 0.4208 -0.8587 -0.2925
vn 0.5645 -0.7505 -0.3436
vn 0.7243 -0.5522 -0.4129
vn 0.8495 -0.2242 -0.4776
vn -0.0941 -0.9956 -0.0001
vn 0.0941 -0.9956 -0.0001
usemtl Material.001
s off
g parachute
f 1/1/1 2/2/1 4/3/1 3/4/1
f 3/4/2 4/3/2 6/5/2 5/6/2
f 5/6/3 6/5/3 8/7/3 7/8/3
f 7/8/4 8/7/4 10/9/4 9/10/4
f 9/10/5 10/9/5 12/11/5 11/12/5
f 11/12/6 12/11/6 14/13/6 13/14/6
f 13/14/7 14/13/7 16/15/7 15/16/7
f 15/16/8 16/15/8 18/17/8 17/18/8
f 19/19/9 20/20/9 22/21/9 21/22/9
f 21/22/10 22/21/10 24/23/10 23/24/10
f 23/24/11 24/23/11 26/25/11 25/26/11
f 25/26/12 26/25/12 28/27/12 27/28/12
f 27/28/13 28/27/13 30/29/13 29/30/13
f 29/30/14 30/29/14 32/31/14 31/32/14
f 31/32/15 32/31/15 34/33/15 33/34/15
f 33/34/16 34/33/16 2/2/16 1/1/16
f 59/35/17 60/36/17 43/37/17 42/38/17
f 58/39/18 59/35/18 42/38/18 41/40/18
f 57/41/19 58/39/19 41/40/19 40/42/19
f 56/43/20 57/41/20 40/42/20 39/44/20
f 55/45/21 56/43/21 39/44/21 38/46/21
f 54/47/22 55/45/22 38/46/22 37/48/22
f 53/49/23 54/47/23 37/48/23 36/50/23
f 52/51/24 53/49/24 36/50/24 35/52/24
f 52/51/25 35/52/25 51/53/25 68/54/25
f 67/55/26 68/54/26 51/53/26 50/56/26
f 66/57/27 67/55/27 50/56/27 49/58/27
f 65/59/28 66/57/28 49/58/28 48/60/28
f 64/61/29 65/59/29 48/60/29 47/62/29
f 63/63/30 64/61/30 47/62/30 46/64/30
f 62/65/31 63/63/31 46/64/31 45/66/31
f 61/67/32 62/65/32 45/66/32 44/68/32
f 93/69/33 94/70/33 77/71/33 76/72/33
f 60/73/34 59/74/34 76/72/34 77/71/34
f 59/74/35 58/75/35 75/76/35 76/72/35
f 58/75/36 57/77/36 74/78/36 75/76/36
f 57/77/37 56/79/37 73/80/37 74/78/37
f 56/79/38 55/81/38 72/82/38 73/80/38
f 55/81/39 54/83/39 71/84/39 72/82/39
f 54/83/40 53/85/40 70/86/40 71/84/40
f 53/85/41 52/87/41 69/88/41 70/86/41
f 68/89/42 85/90/42 69/88/42 52/87/42
f 68/89/43 67/91/43 84/92/43 85/90/43
f 67/91/44 66/93/44 83/94/44 84/92/44
f 66/93/45 65/95/45 82/96/45 83/94/45
f 65/95/46 64/97/46 81/98/46 82/96/46
f 64/97/47 63/99/47 80/100/47 81/98/47
f 63/99/48 62/101/48 79/102/48 80/100/48
f 62/101/49 61/103/49 78/104/49 79/102/49
f 93/69/50 76/72/50 75/76/50 74/78/50 91/105/50 92/106/50
f 90/107/51 73/80/51 72/82/51 71/84/51 88/108/51 89/109/51
f 90/107/52 91/105/52 74/78/52 73/80/52
f 78/104/53 95/110/53 96/111/53 97/112/53 80/100/53 79/102/53
f 80/100/54 97/112/54 98/113/54 99/114/54 82/96/54 81/98/54
f 99/114/55 100/115/55 83/94/55 82/96/55
f 100/115/56 101/116/56 84/92/56 83/94/56
f 86/117/57 69/88/57 85/90/57 102/118/57
f 86/117/58 87/119/58 70/86/58 69/88/58
f 87/119/59 88/108/59 71/84/59 70/86/59
f 101/116/60 102/118/60 85/90/60 84/92/60
f 19/19/61 21/22/61 113/120/61 112/121/61
f 21/22/62 23/24/62 114/122/62 113/120/62
f 23/24/63 25/26/63 115/123/63 114/122/63
f 25/26/64 27/28/64 116/124/64 115/123/64
f 27/28/65 29/30/65 117/125/65 116/124/65
f 29/30/66 31/32/66 118/126/66 117/125/66
f 31/32/67 33/34/67 119/127/67 118/126/67
f 33/34/68 1/1/68 103/128/68 119/127/68
f 1/1/69 3/4/69 104/129/69 103/128/69
f 3/4/70 5/6/70 105/130/70 104/129/70
f 5/6/71 7/8/71 106/131/71 105/130/71
f 7/8/72 9/10/72 107/132/72 106/131/72
f 9/10/73 11/12/73 108/133/73 107/132/73
f 11/12/74 13/14/74 109/134/74 108/133/74
f 13/14/75 15/16/75 110/135/75 109/134/75
f 15/16/76 17/18/76 111/136/76 110/135/76
f 93/69/77 110/137/77 111/138/77 94/70/77
f 92/106/78 109/139/78 110/137/78 93/69/78
f 91/105/79 108/140/79 109/139/79 92/106/79
f 90/107/80 107/141/80 108/140/80 91/105/80
f 89/109/81 106/142/81 107/141/81 90/107/81
f 88/108/82 105/143/82 106/142/82 89/109/82
f 87/119/83 104/144/83 105/143/83 88/108/83
f 86/117/84 103/145/84 104/144/84 87/119/84
f 102/118/85 119/146/85 103/145/85 86/117/85
f 101/116/86 118/147/86 119/146/86 102/118/86
f 100/115/87 117/148/87 118/147/87 101/116/87
f 99/114/88 116/149/88 117/148/88 100/115/88
f 98/113/89 115/150/89 116/149/89 99/114/89
f 97/112/90 114/151/90 115/150/90 98/113/90
f 96/111/91 113/152/91 114/151/91 97/112/91
f 96/111/92 95/110/92 112/153/92 113/152/92
f 43/154/93 60/73/93 77/71/93 94/70/93 111/138/93 17/155/93
f 44/156/94 19/157/94 112/153/94 95/110/94 78/104/94 61/103/94
l 2 35
l 4 36
l 6 37
l 8 38
l 10 39
l 12 40
l 14 41
l 16 42
l 18 43
l 20 44
l 22 45
l 24 46
l 26 47
l 28 48
l 30 49
l 32 50
l 34 51
l 72 89
l 75 92
l 79 96
l 81 98
